<?xml version="1.0" encoding="UTF-8" standalone="no"?>
<svg
   height="800.00006"
   width="1200"
   viewBox="-73.055055 -24.334675 633.14381 146.00806"
   version="1.1"
   id="svg3"
   sodipodi:docname="reebok.svg"
   xmlns:inkscape="http://www.inkscape.org/namespaces/inkscape"
   xmlns:sodipodi="http://sodipodi.sourceforge.net/DTD/sodipodi-0.dtd"
   xmlns="http://www.w3.org/2000/svg"
   xmlns:svg="http://www.w3.org/2000/svg">
  <sodipodi:namedview
     id="namedview3"
     pagecolor="#ffffff"
     bordercolor="#000000"
     borderopacity="0.25"
     inkscape:showpageshadow="2"
     inkscape:pageopacity="0.0"
     inkscape:pagecheckerboard="0"
     inkscape:deskcolor="#d1d1d1"
     showgrid="false" />
  <defs
     id="defs1">
    <clipPath
       id="a"
       clipPathUnits="userSpaceOnUse">
      <path
         d="M 0,0 H 648 V 846 H 0 Z"
         id="path1" />
    </clipPath>
  </defs>
  <path
     d="M 408.7297,68.9062 426.8162,37.7197 429.1782,0.0056 425.1242,0 l -50.0937,86.356 2.1163,3.6464 z m 4.283,7.3094 -33.9953,16.992 2.0996,3.6575 99.8134,0.1843 2.0159,-3.49 -34.079,-17.3103 z m 24.2733,-76.1933 -4.3499,-0.0167 2.1499,37.7197 17.9636,31.2926 31.7504,21.3475 2.2336,-3.8083 z"
     fill="#d01931"
     id="path2" />
  <g
     clip-path="url(#a)"
     transform="matrix(5.58397,0,0,-5.58397,-3054.4293,751.5888)"
     fill="#2b2c2b"
     id="g3">
    <path
       d="m 599.9731,123.7541 -0.002,-2.305 c -0.005,-2.696 -1.854,-4.207 -4.434,-4.28 h -0.558 c -2.582,0.107 -4.413,1.616 -4.408,4.295 v 2.305 c 0.009,2.702 1.858,4.201 4.45,4.275 0.131,0.002 0.385,0 0.513,0 2.601,-0.083 4.446,-1.609 4.439,-4.29 m -4.88,2.053 c -1.017,-0.056 -1.994,-0.581 -1.998,-2.048 v -2.31 c -0.004,-1.411 0.971,-1.979 1.989,-2.041 0.052,-0.006 0.308,-0.006 0.364,-0.003 0.998,0.056 1.987,0.598 1.989,2.038 l 0.003,2.311 c 0.005,1.451 -0.985,1.994 -1.999,2.053 -0.125,0.009 -0.231,0.009 -0.348,0 m 8.7672,-2.3342 c 0,0 3.79,4.313 4.016,4.553 l 3.168,-0.008 -4.605,-5.203 4.832,-5.359 -3.21,0.005 -4.205,4.676 -0.008,-4.669 -2.549,0.005 0.024,13.137 2.547,-0.004 z m -36.0405,-1.535 0.005,1.859 c 0.007,2.701 -1.88,4.213 -4.465,4.301 l -0.487,0.003 c -2.602,-0.081 -4.452,-1.585 -4.454,-4.284 l -0.005,-2.293 c -0.005,-2.572 1.91,-4.169 4.385,-4.298 0.263,-0.005 0.4,0.002 0.577,0 3.099,-0.005 4.258,1.565 4.4,3.361 l -2.332,0.006 c -0.062,-0.34 -0.177,-1.212 -2.13,-1.21 -0.343,0.004 -0.818,0.088 -1.159,0.2 -1.448,0.485 -1.217,2.272 -1.217,2.37 z m -6.884,2.051 c 0,1.389 0.923,1.93 2.017,1.973 0.117,0.003 0.236,0.006 0.339,-0.002 1.109,-0.046 2.037,-0.632 2.034,-1.981 v -0.179 l -4.394,0.004 z m 17.5624,-2.0667 0.004,1.855 c 0.007,2.701 -1.882,4.213 -4.469,4.305 h -0.483 c -2.606,-0.08 -4.461,-1.585 -4.465,-4.283 l -0.003,-2.295 c -0.005,-2.567 1.908,-4.171 4.387,-4.298 0.27,-0.005 0.401,0 0.58,0 3.104,-0.005 4.255,1.569 4.398,3.36 l -2.319,0.009 c -0.076,-0.341 -0.181,-1.212 -2.146,-1.209 -0.34,0.003 -0.81,0.088 -1.146,0.201 -1.461,0.482 -1.221,2.27 -1.223,2.366 z m -6.892,2.045 c 0.004,1.393 0.931,1.935 2.017,1.976 0.114,0.004 0.238,0.002 0.345,-0.003 1.105,-0.044 2.034,-0.631 2.031,-1.978 v -0.18 l -4.396,0.006 z m 13.2344,4.0762 c -1.181,0.003 -1.99,-0.319 -2.435,-0.7 l 0.003,3.301 -2.53,0.004 -0.021,-13.137 h 0.442 c 0,0 1.124,0.629 1.185,0.65 0.163,-0.173 1.271,-0.986 2.803,-0.986 0.195,-0.002 0.375,-0.017 0.565,-0.005 2.56,0.053 4.415,1.642 4.421,4.28 l 0.002,2.292 c 0.005,2.58 -1.854,4.299 -4.435,4.301 m 1.901,-6.602 c -10e-4,-1.438 -1,-1.979 -1.994,-2.044 -0.052,0 -0.316,0.002 -0.363,0.005 -1.016,0.068 -1.991,0.628 -1.991,2.043 l 0.006,2.309 c 0.002,1.472 0.981,1.988 1.994,2.055 0.122,0.009 0.232,0.013 0.356,-10e-4 1.004,-0.069 1.997,-0.599 1.995,-2.061 z m -28.6479,-3.8915 -4.863,5.425 c 0.242,-0.014 0.482,-0.024 0.728,-0.024 1.671,-0.002 3.751,1.052 3.754,3.728 0.009,3.209 -2.655,4.012 -5.016,4.014 l -5.67,0.014 -0.027,-13.136 2.569,-0.006 v 5.863 l 5.27,-5.872 z m -8.509,10.906 3.081,-0.009 c 1.423,0 2.682,-0.451 2.682,-1.804 -0.004,-1.357 -0.79,-1.843 -2.689,-1.834 l -3.082,0.002 z"
       id="path3" />
  </g>
</svg>
